<svg id="graphDiv" width="100%" xmlns="http://www.w3.org/2000/svg" xmlns:xlink="http://www.w3.org/1999/xlink" height="596.828125" style="max-width: 684.523px; transform: scale(1);" viewBox="-22.5 -22.5 684.5234375 596.828125"><style>#graphDiv{font-family:"trebuchet ms",verdana,arial,sans-serif;font-size:16px;fill:#333;}#graphDiv .error-icon{fill:#552222;}#graphDiv .error-text{fill:#552222;stroke:#552222;}#graphDiv .edge-thickness-normal{stroke-width:2px;}#graphDiv .edge-thickness-thick{stroke-width:3.5px;}#graphDiv .edge-pattern-solid{stroke-dasharray:0;}#graphDiv .edge-pattern-dashed{stroke-dasharray:3;}#graphDiv .edge-pattern-dotted{stroke-dasharray:2;}#graphDiv .marker{fill:#333333;}#graphDiv .marker.cross{stroke:#333333;}#graphDiv svg{font-family:"trebuchet ms",verdana,arial,sans-serif;font-size:16px;}#graphDiv g.classGroup text{fill:#9370DB;fill:#131300;stroke:none;font-family:"trebuchet ms",verdana,arial,sans-serif;font-size:10px;}#graphDiv g.classGroup text .title{font-weight:bolder;}#graphDiv .classTitle{font-weight:bolder;}#graphDiv .node rect,#graphDiv .node circle,#graphDiv .node ellipse,#graphDiv .node polygon,#graphDiv .node path{fill:#ECECFF;stroke:#9370DB;stroke-width:1px;}#graphDiv .divider{stroke:#9370DB;stroke:1;}#graphDiv g.clickable{cursor:pointer;}#graphDiv g.classGroup rect{fill:#ECECFF;stroke:#9370DB;}#graphDiv g.classGroup line{stroke:#9370DB;stroke-width:1;}#graphDiv .classLabel .box{stroke:none;stroke-width:0;fill:#ECECFF;opacity:0.5;}#graphDiv .classLabel .label{fill:#9370DB;font-size:10px;}#graphDiv .relation{stroke:#333333;stroke-width:1;fill:none;}#graphDiv .dashed-line{stroke-dasharray:3;}#graphDiv #compositionStart,#graphDiv .composition{fill:#333333 !important;stroke:#333333 !important;stroke-width:1;}#graphDiv #compositionEnd,#graphDiv .composition{fill:#333333 !important;stroke:#333333 !important;stroke-width:1;}#graphDiv #dependencyStart,#graphDiv .dependency{fill:#333333 !important;stroke:#333333 !important;stroke-width:1;}#graphDiv #dependencyStart,#graphDiv .dependency{fill:#333333 !important;stroke:#333333 !important;stroke-width:1;}#graphDiv #extensionStart,#graphDiv .extension{fill:#333333 !important;stroke:#333333 !important;stroke-width:1;}#graphDiv #extensionEnd,#graphDiv .extension{fill:#333333 !important;stroke:#333333 !important;stroke-width:1;}#graphDiv #aggregationStart,#graphDiv .aggregation{fill:#ECECFF !important;stroke:#333333 !important;stroke-width:1;}#graphDiv #aggregationEnd,#graphDiv .aggregation{fill:#ECECFF !important;stroke:#333333 !important;stroke-width:1;}#graphDiv .edgeTerminals{font-size:11px;}#graphDiv .label div{padding:5px 24px;}#graphDiv .label{font-family:Inter,Arial,sans-serif;color:#ffffff;font-size:15px;font-weight:500;}#graphDiv li{font-family:Inter,Arial,sans-serif;color:#ffffff;font-size:13px;padding-left:0.5em;font-weight:500;text-align:left;}#graphDiv li:first-of-type{padding-top:7px;}#graphDiv ul{margin-top:8px;margin-bottom:1rem;margin-left:-50px;border-top:1px solid #5ae1a8;width:500%;list-style-type:none;}#graphDiv .node rect{fill:#51a0f4;stroke:#51a0f4;color:#ffffff;}#graphDiv .edgeLabel{color:#b9b9b9;background-color:transparent;font-size:12px;}#graphDiv .edge-thickness-normal{stroke-width:1px;!important;}#graphDiv .path{stroke:#d5d5d5 !important;}#graphDiv .edgeLabel{color:#353535;font-size:11px;font-weight:600;}#graphDiv .flowchart-link{stroke:#c0c4ce !important;}#graphDiv #extensionEnd{fill:white;}#graphDiv .cluster rect{fill:#e8f5ff;stroke:#3c60cc;stroke-width:1px;opacity:0.3;stroke-dasharray:6;}#graphDiv .cluster .nodeLabel{font-size:14px;color:#92a7cc;}#graphDiv .fa{padding:0 4px 4px 0 !important;-webkit-transform:scale(1.2);-ms-transform:scale(1.2);transform:scale(1.2);}#graphDiv rect[rx="5"]{fill:#22d097 !important;stroke:#22d097 !important;}#graphDiv rect[rx^="23"]{fill:#f47474 !important;stroke:#f47474 !important;}#graphDiv circle[rx="0"]{fill:#9B84D0;stroke:#9370DB;stroke-width:1px;}#graphDiv .node path{fill:#FF9555 !important;stroke:#FFAB61 !important;stroke-width:1px;}#graphDiv .node polygon{fill:#FF7B65 !important;stroke:#FF7B65 !important;stroke-width:1px;}#graphDiv .node polygon[points*="0,-"]{fill:#3B5DAE !important;stroke:#FFF !important;}#graphDiv .node path + .label ul{border-top:1px solid #FFAB61;}#graphDiv .node polygon + .label ul{border-top:1px solid #5e7ed0;}#graphDiv rect[class="er entityBox"]{fill:#2ea2f7 !important;stroke:#2ea2f7 !important;}#graphDiv marker{fill:#000;}#graphDiv text[class="er entityLabel"]{fill:#ffffff;font-weight:600;font-size:15px !important;font-family:Oxygen,Arial,sans-serif !important;}#graphDiv rect[class="er attributeBoxOdd"]{fill:#0d7ed1 !important;stroke:#2ea2f7 !important;}#graphDiv rect[class="er attributeBoxEven"]{fill:#74b4e3 !important;stroke:#2ea2f7 !important;}#graphDiv text[class="er relationshipLabel"]{fill:#353535;font-weight:600;font-size:11px !important;font-family:Oxygen,Arial,sans-serif !important;}#graphDiv text[class="actor"] &gt; tspan{fill:#ffffff;font-weight:600 !important;font-size:15px !important;font-family:Oxygen,Arial,sans-serif !important;}#graphDiv polygon[class="labelBox"]{fill:#b3d6ee !important;stroke:#93b4c9 !important;}#graphDiv line[class="loopLine"]{fill:#93b4c9 !important;stroke:#93b4c9 !important;}#graphDiv rect[class="actor"]{fill:#2ea2f7;stroke:#2ea2f7;}#graphDiv text[class="noteText"] &gt; tspan{fill:#ffffff;font-weight:600 !important;font-size:13px !important;font-family:Oxygen,Arial,sans-serif !important;}#graphDiv rect[class="note"]{fill:#3B5DAE;stroke:#2b4480;}#graphDiv rect[class=" classShape"]{fill:#2ea2f7 !important;stroke:#2ea2f7 !important;}#graphDiv g.classGroup line{stroke:#2283c9 !important;}#graphDiv g.classGroup text{fill:#ffffff !important;font-weight:600 !important;font-family:Oxygen,Arial,sans-serif !important;}#graphDiv g.classLabel .label{fill:#3B5DAE !important;font-weight:600 !important;font-family:Oxygen,Arial,sans-serif !important;}#graphDiv:root{--mermaid-font-family:"trebuchet ms",verdana,arial,sans-serif;}#graphDiv class{fill:apa;}</style><g></g><defs><marker id="extensionStart" class="extension" refX="0" refY="7" markerWidth="190" markerHeight="240" orient="auto"><path d="M 1,7 L18,13 V 1 Z"></path></marker></defs><defs><marker id="extensionEnd" refX="19" refY="7" markerWidth="20" markerHeight="28" orient="auto"><path d="M 1,1 V 13 L18,7 Z"></path></marker></defs><defs><marker id="compositionStart" class="extension" refX="0" refY="7" markerWidth="190" markerHeight="240" orient="auto"><path d="M 18,7 L9,13 L1,7 L9,1 Z"></path></marker></defs><defs><marker id="compositionEnd" refX="19" refY="7" markerWidth="20" markerHeight="28" orient="auto"><path d="M 18,7 L9,13 L1,7 L9,1 Z"></path></marker></defs><defs><marker id="aggregationStart" class="extension" refX="0" refY="7" markerWidth="190" markerHeight="240" orient="auto"><path d="M 18,7 L9,13 L1,7 L9,1 Z"></path></marker></defs><defs><marker id="aggregationEnd" refX="19" refY="7" markerWidth="20" markerHeight="28" orient="auto"><path d="M 18,7 L9,13 L1,7 L9,1 Z"></path></marker></defs><defs><marker id="dependencyStart" class="extension" refX="0" refY="7" markerWidth="190" markerHeight="240" orient="auto"><path d="M 5,7 L9,13 L1,7 L9,1 Z"></path></marker></defs><defs><marker id="dependencyEnd" refX="19" refY="7" markerWidth="20" markerHeight="28" orient="auto"><path d="M 18,7 L9,13 L14,7 L9,1 Z"></path></marker></defs><g id="classid-User-0" class="classGroup" transform="translate(16.7265625,403.21875 )"><rect x="0" y="0" width="75.5625" height="151.109375" class=" classShape"></rect><text y="15" x="0"><tspan class="title" x="26.59375">User</tspan></text><line x1="0" y1="21" y2="21" x2="75.5625"></line><text x="5" y="31" fill="white" class="classText"><tspan x="5">- id</tspan><tspan x="5" dy="10">- firstName</tspan><tspan x="5" dy="10">- lastName</tspan><tspan x="5" dy="10">- email</tspan><tspan x="5" dy="10">- birthdate</tspan><tspan x="5" dy="10">- password</tspan><tspan x="5" dy="10">- address</tspan><tspan x="5" dy="10">- city</tspan><tspan x="5" dy="10">- postalCode</tspan><tspan x="5" dy="10">- createdAt</tspan><tspan x="5" dy="10">- deletedAt</tspan><tspan x="5" dy="10">- type</tspan></text><line x1="0" y1="147.109375" y2="147.109375" x2="75.5625"></line><text x="5" y="162.109375" fill="white" class="classText"></text></g><g id="classid-Client-1" class="classGroup" transform="translate(0,302.21875 )"><rect x="0" y="0" width="89.015625" height="51" class=" classShape"></rect><text y="15" x="0"><tspan class="title" x="30.6171875">Client</tspan></text><line x1="0" y1="21" y2="21" x2="89.015625"></line><text x="5" y="31" fill="white" class="classText"><tspan x="5">- id</tspan><tspan x="5" dy="10">- phoneNumber</tspan></text><line x1="0" y1="47" y2="47" x2="89.015625"></line><text x="5" y="62" fill="white" class="classText"></text></g><g id="classid-Artiste-2" class="classGroup" transform="translate(157.59375,302.21875 )"><rect x="0" y="0" width="67.25" height="51" class=" classShape"></rect><text y="15" x="0"><tspan class="title" x="17.78125">Artiste</tspan></text><line x1="0" y1="21" y2="21" x2="67.25"></line><text x="5" y="31" fill="white" class="classText"><tspan x="5">- id</tspan><tspan x="5" dy="10">- nickname</tspan></text><line x1="0" y1="47" y2="47" x2="67.25"></line><text x="5" y="62" fill="white" class="classText"></text></g><g id="classid-Music-3" class="classGroup" transform="translate(143.7109375,438.2734375 )"><rect x="0" y="0" width="75.015625" height="81" class=" classShape"></rect><text y="15" x="0"><tspan class="title" x="23.3359375">Music</tspan></text><line x1="0" y1="21" y2="21" x2="75.015625"></line><text x="5" y="31" fill="white" class="classText"><tspan x="5">- id</tspan><tspan x="5" dy="10">- title</tspan><tspan x="5" dy="10">- description</tspan><tspan x="5" dy="10">- createdAt</tspan><tspan x="5" dy="10">- deletedAt</tspan></text><line x1="0" y1="77" y2="77" x2="75.015625"></line><text x="5" y="92" fill="white" class="classText"></text></g><g id="classid-Reservation-4" class="classGroup" transform="translate(141.0390625,151.109375 )"><rect x="0" y="0" width="73.359375" height="101.109375" class=" classShape"></rect><text y="15" x="0"><tspan class="title" x="8.0546875">Reservation</tspan></text><line x1="0" y1="21" y2="21" x2="73.359375"></line><text x="5" y="31" fill="white" class="classText"><tspan x="5">- id</tspan><tspan x="5" dy="10">- createdAt</tspan><tspan x="5" dy="10">- reservedAt</tspan><tspan x="5" dy="10">- type</tspan><tspan x="5" dy="10">- status</tspan><tspan x="5" dy="10">- userId</tspan><tspan x="5" dy="10">- paymentId</tspan></text><line x1="0" y1="97.109375" y2="97.109375" x2="73.359375"></line><text x="5" y="112.109375" fill="white" class="classText"></text></g><g id="classid-Concert-5" class="classGroup" transform="translate(268.7265625,433.2734375 )"><rect x="0" y="0" width="67.25" height="91" class=" classShape"></rect><text y="15" x="0"><tspan class="title" x="14.7265625">Concert</tspan></text><line x1="0" y1="21" y2="21" x2="67.25"></line><text x="5" y="31" fill="white" class="classText"><tspan x="5">- id</tspan><tspan x="5" dy="10">- name</tspan><tspan x="5" dy="10">- createdAt</tspan><tspan x="5" dy="10">- deletedAt</tspan><tspan x="5" dy="10">- startedAt</tspan><tspan x="5" dy="10">- endedAt</tspan></text><line x1="0" y1="87" y2="87" x2="67.25"></line><text x="5" y="102" fill="white" class="classText"></text></g><g id="classid-Payment-6" class="classGroup" transform="translate(135.7578125,0 )"><rect x="0" y="0" width="83.921875" height="101.109375" class=" classShape"></rect><text y="15" x="0"><tspan class="title" x="21.1171875">Payment</tspan></text><line x1="0" y1="21.109375" y2="21.109375" x2="83.921875"></line><text x="5" y="31.109375" fill="white" class="classText"><tspan x="5">- id</tspan><tspan x="5" dy="10">- type</tspan><tspan x="5" dy="10">- comment</tspan><tspan x="5" dy="10">- status</tspan><tspan x="5" dy="10">- createdAt</tspan><tspan x="5" dy="10">- deletedAt</tspan><tspan x="5" dy="10">- reservationId</tspan></text><line x1="0" y1="97.109375" y2="97.109375" x2="83.921875"></line><text x="5" y="112.109375" fill="white" class="classText"></text></g><g id="classid-PaymentStatus-7" class="classGroup" transform="translate(269.6796875,14.9453125 )"><rect x="0" y="0" width="153.390625" height="71.21875" class=" classShape"></rect><text y="15" x="0"><tspan x="41.125">«enumeration»</tspan><tspan class="title" dy="10" x="40.5625">PaymentStatus</tspan></text><line x1="0" y1="31.109375" y2="31.109375" x2="153.390625"></line><text x="5" y="41.109375" fill="white" class="classText"><tspan x="5">- Pending</tspan><tspan x="5" dy="10">- Accepted</tspan><tspan x="5" dy="10">- Rejected</tspan></text><line x1="0" y1="67.21875" y2="67.21875" x2="153.390625"></line><text x="5" y="82.21875" fill="white" class="classText"></text></g><g id="classid-ReservationStatus-8" class="classGroup" transform="translate(473.0703125,10.0546875 )"><rect x="0" y="0" width="168.953125" height="81" class=" classShape"></rect><text y="15" x="0"><tspan x="48.90625">«enumeration»</tspan><tspan class="title" dy="10" x="40.5625">ReservationStatus</tspan></text><line x1="0" y1="31" y2="31" x2="168.953125"></line><text x="5" y="41" fill="white" class="classText"><tspan x="5">- Pending</tspan><tspan x="5" dy="10">- Accepted</tspan><tspan x="5" dy="10">- Rejected</tspan><tspan x="5" dy="10">- Canceled</tspan></text><line x1="0" y1="77" y2="77" x2="168.953125"></line><text x="5" y="92" fill="white" class="classText"></text></g><path d="M44.5078125,353.21875L44.5078125,357.3854166666667C44.5078125,361.5520833333333,44.5078125,369.8854166666667,44.92218071795768,378.21875C45.33654893591537,386.5520833333333,46.16528537183073,394.8854166666667,46.579653589788414,399.0520833333333L46.994021807746094,403.21875" id="edge0" class="relation" marker-end="url(#dependencyEnd)"></path><g class="classLabel"><rect class="box" x="-2.5" y="-2.5" width="5" height="5"></rect><text class="label" x="44.51391441556617" y="378.28010762129077" fill="red" text-anchor="middle"></text></g><path d="M157.59375,348.2653303280238L149.423828125,353.25756694001984C141.25390625,358.24980355201586,124.9140625,368.2342767760079,114.02994791666667,378.2744686439766C103.14583333333333,388.3146605119452,97.71744791666667,398.4105710238903,95.00325520833333,403.458526279863L92.2890625,408.5064815358356" id="edge1" class="relation" marker-end="url(#dependencyEnd)"></path><g class="classLabel"><rect class="box" x="-2.5" y="-2.5" width="5" height="5"></rect><text class="label" x="118.41214781238031" y="372.20727640173686" fill="red" text-anchor="middle"></text></g><path d="M186.16924504950495,353.21875L185.34416254125412,357.3854166666667C184.51908003300332,361.5520833333333,182.86891501650166,369.8854166666667,182.04383250825083,384.0611979166667C181.21875,398.2369791666667,181.21875,418.2552083333333,181.21875,428.2643229166667L181.21875,438.2734375" id="edge2" class="relation"></path><g class="classLabel"><rect class="box" x="-2.5" y="-2.5" width="5" height="5"></rect><text class="label" x="181.21875" y="395.5033762098207" fill="red" text-anchor="middle"></text></g><g class="cardinality"><text class="type1" x="178.83638267028508" y="364.50941558389815" fill="black" font-size="6">1</text></g><g class="cardinality"><text class="type2" x="186.21875" y="425.7734375" fill="black" font-size="6">0..*</text></g><path d="M141.0390625,222.46807738549057L124.95052083333333,231.59318948790883C108.86197916666667,240.71830159032706,76.68489583333333,258.96852579516354,60.596354166666664,272.26030456424843C44.5078125,285.5520833333333,44.5078125,293.8854166666667,44.5078125,298.0520833333333L44.5078125,302.21875" id="edge3" class="relation"></path><g class="classLabel"><rect class="box" x="-2.5" y="-2.5" width="5" height="5"></rect><text class="label" x="81.90055882520447" y="256.0103018320889" fill="red" text-anchor="middle"></text></g><g class="cardinality"><text class="type1" x="127.69942856946705" y="224.28581405491596" fill="black" font-size="6">0..*</text></g><g class="cardinality"><text class="type2" x="49.5078125" y="289.71875" fill="black" font-size="6">1</text></g><path d="M214.3984375,222.24836342337375L230.72395833333334,231.41009451947812C247.04947916666666,240.5718256155825,279.7005208333333,258.89528780779125,296.0260416666667,276.4736855705623C312.3515625,294.0520833333333,312.3515625,310.8854166666667,312.3515625,327.71875C312.3515625,344.5520833333333,312.3515625,361.3854166666667,311.4390459900163,378.9778645833333C310.52652948003265,396.5703125,308.70149646006524,414.921875,307.78897995008157,424.09765625L306.8764634400979,433.2734375" id="edge4" class="relation"></path><g class="classLabel"><rect class="box" x="-2.5" y="-2.5" width="5" height="5"></rect><text class="label" x="312.3515625" y="299.22015475607634" fill="red" text-anchor="middle"></text></g><g class="cardinality"><text class="type1" x="222.85225639634072" y="232.72609915528992" fill="black" font-size="6">0..*</text></g><g class="cardinality"><text class="type2" x="313.0889231298885" y="421.32959621661354" fill="black" font-size="6">1</text></g><path d="M177.71875,101.109375L177.71875,105.27604166666667C177.71875,109.44270833333333,177.71875,117.77604166666667,177.71875,126.109375C177.71875,134.44270833333334,177.71875,142.77604166666666,177.71875,146.94270833333334L177.71875,151.109375" id="edge5" class="relation"></path><g class="classLabel"><rect class="box" x="-2.5" y="-2.5" width="5" height="5"></rect><text class="label" x="177.71875" y="126.109375" fill="red" text-anchor="middle"></text></g><g class="cardinality"><text class="type1" x="172.71875" y="113.609375" fill="black" font-size="6">1</text></g><g class="cardinality"><text class="type2" x="182.71875" y="138.609375" fill="black" font-size="6">1</text></g><path d="M221.80178681930693,353.21875L226.79901505775578,357.3854166666667C231.7962432962046,361.5520833333333,241.79069977310232,369.8854166666667,251.40219606691787,383.2278645833333C261.0136923607334,396.5703125,270.24222847146683,414.921875,274.85649652683355,424.09765625L279.4707645822003,433.2734375" id="edge6" class="relation"></path><g class="classLabel"><rect class="box" x="-2.5" y="-2.5" width="5" height="5"></rect><text class="label" x="256.858611377859" y="388.30765551574706" fill="red" text-anchor="middle"></text></g><g class="cardinality"><text class="type1" x="228.20040062499413" y="365.0639068738311" fill="black" font-size="6">1..*</text></g><g class="cardinality"><text class="type2" x="278.3219147639886" y="419.8596332634981" fill="black" font-size="6">0..*</text></g></svg>